<svg viewBox="0 0 270 270" xmlns="http://www.w3.org/2000/svg"><path d="m250 0h-230a20 20 0 0 0 -20 20v230a20 20 0 0 0 20 20h230a20 20 0 0 0 20-20v-230a20 20 0 0 0 -20-20zm-211.4 181.1a19.17 19.17 0 0 1 18.8-18.8c8.8 0 15 6.8 15 15.2 0 10.2-8.6 19-18.6 19-9 0-15.2-6.8-15.2-15.4zm81.4 2c-4.6 33.4-21.8 44.8-47 54.2l-7.2-20.6c15-6 23.4-12.6 26.2-32.6l13.6-96.8h28zm3.2-117.2c-10.4 0-16.4-7.6-15.2-17.4 1.2-9 9-15.8 18.8-15.8 10.4 0 16.4 7.6 15 17.4-1.2 9-8.8 15.8-18.6 15.8zm75.2 62.4c18.4 5.8 28.2 15 28.2 32.2 0 20.4-16.4 36-46.6 36-18.8 0-34-7.4-43-17l15-15.4a39.52 39.52 0 0 0 28 11.6c13.2 0 18.4-6.2 18.4-12.2 0-7.8-4.4-10.2-21.2-15.8-18.2-6.2-27.4-15.8-27.4-30.6 0-17 14.8-33 44.2-33 14.4 0 28.4 5.2 37.4 13.4l-12.8 16.2c-6.8-6-16.4-9-24.6-9-10.6 0-16.2 3.8-16.2 10 0 6.4 5 8.6 20.6 13.6z" fill="#bf0000"/></svg>