<svg viewBox="0 0 257.28 257.28" xmlns="http://www.w3.org/2000/svg"><path d="m196.64 220.14c-18.8 0-34-7.4-43-17l15-15.4a39.52 39.52 0 0 0 28 11.6c13.2 0 18.4-6.2 18.4-12.2 0-7.8-4.4-10.2-21.2-15.8-18.2-6.2-27.4-15.8-27.4-30.6 0-17 14.8-33 44.2-33 14.4 0 28.4 5.2 37.4 13.4l-12.8 16.2c-6.8-6-16.4-9-24.6-9-10.6 0-16.2 3.8-16.2 10 0 6.4 5 8.6 20.6 13.6 18.4 5.8 28.2 15 28.2 32.2 0 1.12-.06 2.21-.16 3.3a128.65 128.65 0 1 0 -157.27 62.56l-3.37-9.63c15-6 23.4-12.6 26.2-32.6l13.6-96.8h28l-13.6 95.8c-3.68 26.7-15.41 39.34-32.84 48.14a128.82 128.82 0 0 0 121.05-40.91c-7.33 3.9-16.78 6.14-28.21 6.14zm-126.2 0c-9 0-15.2-6.8-15.2-15.4a19.17 19.17 0 0 1 18.76-18.8c8.8 0 15 6.8 15 15.2 0 10.2-8.56 19-18.56 19zm69.4-130.6c-10.4 0-16.4-7.6-15.2-17.4 1.2-9 9-15.8 18.8-15.8 10.4 0 16.4 7.6 15 17.4-1.2 9-8.8 15.8-18.6 15.8z" fill="#fff"/></svg>