<svg xmlns="http://www.w3.org/2000/svg" viewBox="0 0 60.17 60.37"><path d="M30.2,40.69a10.51,10.51,0,1,1,10.5-10.5A10.39,10.39,0,0,1,30.2,40.69Zm0-16a5.51,5.51,0,0,0,0,11,5.38,5.38,0,0,0,5.5-5.5A5.51,5.51,0,0,0,30.2,24.68Z"/><path d="M32.42,60.37H28.15A6.38,6.38,0,0,1,21.78,54V52.48c-.41-.17-.84-.35-1.26-.54l-1.19,1.18A6,6,0,0,1,15,54.77a7.36,7.36,0,0,1-4.4-1.41,2.1,2.1,0,0,1-.27-.24L7,49.87a6.21,6.21,0,0,1,0-9l1.17-1.16c-.16-.38-.3-.74-.41-1.08H6.37A6.38,6.38,0,0,1,0,32.22V28a6.37,6.37,0,0,1,6.37-6.37H8l.15-.34c.08-.21.17-.41.25-.59L7,19.33a6.39,6.39,0,0,1-1.95-4.52A6.38,6.38,0,0,1,7,10.3L10.3,7a6.08,6.08,0,0,1,4.36-1.65,7.37,7.37,0,0,1,4.4,1.42,2,2,0,0,1,.27.23L20.5,8.21c.37-.16.74-.3,1.08-.41V6.37A6.37,6.37,0,0,1,28,0h4.27a6.38,6.38,0,0,1,6.37,6.37V8c.31.13.62.26.92.37L40.83,7A6.12,6.12,0,0,1,45.2,5.4a7.38,7.38,0,0,1,4.4,1.41,2.91,2.91,0,0,1,.27.24l3.25,3.25a6.41,6.41,0,0,1,2,4.52,6.39,6.39,0,0,1-2,4.51L52,20.5c.16.38.29.74.4,1.08H53.8A6.38,6.38,0,0,1,60.17,28v4.27a6.38,6.38,0,0,1-6.37,6.37H52.21l-.15.34c-.09.21-.18.41-.25.59l1.31,1.32a6.18,6.18,0,0,1,0,9l-3.25,3.26a6.12,6.12,0,0,1-4.37,1.64,7.38,7.38,0,0,1-4.4-1.41l-.27-.23L39.67,52c-.38.16-.74.29-1.08.41V53.8A6.24,6.24,0,0,1,32.42,60.37ZM19.8,46.62h.61a2.52,2.52,0,0,1,1.12.26,28.14,28.14,0,0,0,3.54,1.49,2.51,2.51,0,0,1,1.71,2.38V54a1.37,1.37,0,0,0,1.37,1.37h4.27c.86,0,1.17-.81,1.17-1.57V51a2.92,2.92,0,0,1,2.54-3.09A8.28,8.28,0,0,0,38,47.2,2.53,2.53,0,0,1,40,46.31a3,3,0,0,1,2.15,1l2.08,2.08a2.46,2.46,0,0,0,1.29.34,1.46,1.46,0,0,0,.83-.18l3.26-3.26a1.46,1.46,0,0,0,.48-1,1.51,1.51,0,0,0-.48-1l-2.24-2.24a2.49,2.49,0,0,1-.73-1.77v-.61a2.7,2.7,0,0,1,0-.49,12.18,12.18,0,0,1,.81-2.32c.19-.42.36-.83.5-1.23a2.39,2.39,0,0,1,.81-1.17A2.93,2.93,0,0,1,51,33.59H53.8a1.38,1.38,0,0,0,1.37-1.37V28a1.37,1.37,0,0,0-1.37-1.37H51A2.92,2.92,0,0,1,47.86,24,8.49,8.49,0,0,0,47.13,22a2.86,2.86,0,0,1-.66-1.39A2.92,2.92,0,0,1,47.35,18l2.24-2.24a1.52,1.52,0,0,0,.49-1,1.47,1.47,0,0,0-.49-1l-3.1-3.1a2.55,2.55,0,0,0-1.29-.34,1.46,1.46,0,0,0-.83.18l-2.24,2.24a2.49,2.49,0,0,1-1.77.73h-.61a2,2,0,0,1-.49-.05,14.64,14.64,0,0,1-2.9-1l-.79-.33a2.43,2.43,0,0,1-1-.77,2.93,2.93,0,0,1-.94-2.16V6.37A1.37,1.37,0,0,0,32.22,5H27.94a1.37,1.37,0,0,0-1.36,1.37V9.22A2.93,2.93,0,0,1,24,12.31a8.11,8.11,0,0,0-1.91.65,2.51,2.51,0,0,1-1.94.9,3,3,0,0,1-2.15-1L16,10.74a2.46,2.46,0,0,0-1.29-.34,1.53,1.53,0,0,0-.83.18l-3.25,3.26a1.43,1.43,0,0,0-.49,1,1.52,1.52,0,0,0,.49,1L12.82,18a2.49,2.49,0,0,1,.73,1.77v.61a2.81,2.81,0,0,1-.05.49,10.94,10.94,0,0,1-.81,2.32c-.18.42-.36.83-.49,1.23a2.57,2.57,0,0,1-.82,1.17,2.91,2.91,0,0,1-2.16.95H6.37A1.37,1.37,0,0,0,5,28v4.27a1.37,1.37,0,0,0,1.37,1.37H9.22a2.9,2.9,0,0,1,3.08,2.54A8.66,8.66,0,0,0,13,38.19a2.76,2.76,0,0,1,.65,1.39,2.93,2.93,0,0,1-.87,2.55l-2.24,2.24a1.23,1.23,0,0,0,0,2l3.1,3.1a2.46,2.46,0,0,0,1.29.34,1.53,1.53,0,0,0,.83-.18L18,47.35A2.47,2.47,0,0,1,19.8,46.62Z"/></svg>