<svg xmlns="http://www.w3.org/2000/svg" viewBox="0 0 1920 1080"><defs><style>.a{opacity:0.09;}.b{fill:none;stroke:#fff;stroke-miterlimit:10;}</style></defs><title>wormhole</title><rect width="1920" height="1080"/><g class="a"><polygon class="b" points="966.1 540.11 962.96 545.34 956.86 545.23 953.9 539.89 957.04 534.66 963.14 534.77 966.1 540.11"/><polygon class="b" points="966.1 536.89 965.75 543.72 959.65 546.84 953.9 543.11 954.25 536.28 960.35 533.16 966.1 536.89"/><polygon class="b" points="972.54 533.66 971.76 547.69 959.22 554.03 947.46 546.34 948.24 532.31 960.78 525.97 972.54 533.66"/><polygon class="b" points="975.76 530.44 976.16 548.87 960.39 558.43 944.24 549.56 943.84 531.13 959.61 521.57 975.76 530.44"/><polygon class="b" points="982.21 524 984.96 551.23 962.75 567.23 937.79 556 935.04 528.77 957.25 512.77 982.21 524"/><polygon class="b" points="985.43 514.34 994.94 549.19 969.51 574.85 934.57 565.66 925.06 530.81 950.49 505.15 985.43 514.34"/><polygon class="b" points="988.65 511.11 999.34 550.37 970.69 579.25 931.35 568.89 920.66 529.63 949.31 500.75 988.65 511.11"/><polygon class="b" points="988.65 504.67 1004.92 547.15 976.27 582.48 931.35 575.33 915.08 532.85 943.73 497.52 988.65 504.67"/><polygon class="b" points="988.65 498.23 1010.5 543.92 981.85 585.7 931.35 581.77 909.5 536.08 938.15 494.3 988.65 498.23"/><polygon class="b" points="988.65 488.56 1018.87 539.09 990.22 590.53 931.35 591.44 901.13 540.91 929.78 489.47 988.65 488.56"/><polygon class="b" points="985.43 482.12 1022.84 533.08 997.41 590.96 934.57 597.88 897.16 546.92 922.59 489.04 985.43 482.12"/><polygon class="b" points="982.21 475.68 1026.81 527.07 1004.6 591.39 937.79 604.33 893.19 552.93 915.4 488.61 982.21 475.68"/><polygon class="b" points="978.99 466.01 1033.57 519.45 1014.59 593.44 941.01 613.99 886.43 560.55 905.41 486.56 978.99 466.01"/><polygon class="b" points="972.54 459.57 1035.93 510.64 1023.39 591.08 947.46 620.43 884.07 569.36 896.61 488.92 972.54 459.57"/><polygon class="b" points="969.32 459.57 1034.32 507.86 1025 588.29 950.68 620.43 885.68 572.14 895 491.71 969.32 459.57"/><polygon class="b" points="962.88 456.35 1033.88 500.66 1031.01 584.32 957.12 623.65 886.12 579.34 888.99 495.68 962.88 456.35"/><polygon class="b" points="959.65 453.12 1035.06 496.26 1035.41 583.14 960.35 626.88 884.94 583.74 884.59 496.86 959.65 453.12"/><polygon class="b" points="946.77 449.9 1031.41 483.49 1044.64 573.59 973.23 630.1 888.59 596.51 875.36 506.41 946.77 449.9"/><polygon class="b" points="930.66 443.46 1028.94 466.32 1058.28 562.86 989.34 636.54 891.06 613.68 861.72 517.14 930.66 443.46"/><polygon class="b" points="917.77 443.46 1022.49 455.16 1064.72 551.7 1002.23 636.54 897.51 624.84 855.28 528.3 917.77 443.46"/><polygon class="b" points="908.11 443.46 1017.66 446.79 1069.55 543.33 1011.89 636.54 902.34 633.21 850.45 536.67 908.11 443.46"/><polygon class="b" points="904.89 443.46 1016.05 444 1071.16 540.54 1015.11 636.54 903.95 636 848.84 539.46 904.89 443.46"/><polygon class="b" points="898.44 443.46 1012.83 438.42 1074.39 534.96 1021.56 636.54 907.17 641.58 845.61 545.04 898.44 443.46"/><polygon class="b" points="892 443.46 1009.61 432.84 1077.61 529.38 1028 636.54 910.39 647.16 842.39 550.62 892 443.46"/><polygon class="b" points="885.56 443.46 1006.39 427.26 1080.83 523.8 1034.44 636.54 913.61 652.74 839.17 556.2 885.56 443.46"/><polygon class="b" points="879.11 446.68 1000.37 423.29 1081.26 516.61 1040.89 633.32 919.63 656.71 838.74 563.39 879.11 446.68"/><polygon class="b" points="872.67 453.12 991.57 420.93 1078.9 507.81 1047.33 626.88 928.43 659.07 841.1 572.19 872.67 453.12"/><polygon class="b" points="866.23 459.57 982.77 418.57 1076.54 499.01 1053.77 620.43 937.23 661.43 843.46 580.99 866.23 459.57"/><polygon class="b" points="856.56 472.45 966.78 416.65 1070.22 484.19 1063.44 607.55 953.22 663.35 849.78 595.81 856.56 472.45"/><polygon class="b" points="850.12 488.56 949.61 419.12 1059.49 470.56 1069.88 591.44 970.39 660.88 860.51 609.44 850.12 488.56"/><polygon class="b" points="846.9 498.23 939.63 421.16 1052.73 462.94 1073.1 581.77 980.38 658.84 867.27 617.06 846.9 498.23"/><polygon class="b" points="846.9 507.89 931.25 426 1044.36 458.1 1073.1 572.11 988.75 654 875.64 621.9 846.9 507.89"/><polygon class="b" points="846.9 517.56 922.88 430.83 1035.99 453.27 1073.1 562.44 997.12 649.17 884.01 626.73 846.9 517.56"/><polygon class="b" points="846.9 527.22 914.51 435.66 1027.62 448.44 1073.1 552.78 1005.49 644.34 892.38 631.56 846.9 527.22"/><polygon class="b" points="846.9 540.11 903.36 442.1 1016.46 442 1073.1 539.89 1016.64 637.9 903.54 638 846.9 540.11"/><polygon class="b" points="850.12 556.22 891.01 452.95 1000.9 436.73 1069.88 523.78 1028.98 627.05 919.1 643.27 850.12 556.22"/><polygon class="b" points="856.56 572.33 880.29 466.58 983.73 434.26 1063.44 507.68 1039.71 613.42 936.27 645.74 856.56 572.33"/><polygon class="b" points="859.78 588.43 867.95 477.43 968.16 428.99 1060.22 491.57 1052.05 602.57 951.84 651.01 859.78 588.43"/><polygon class="b" points="866.23 607.76 854.43 492.67 948.2 424.91 1053.77 472.24 1065.57 587.33 971.8 655.09 866.23 607.76"/><polygon class="b" points="875.89 630.31 839.73 512.32 923.84 422 1044.11 449.69 1080.27 567.68 996.16 658 875.89 630.31"/><polygon class="b" points="888.78 652.87 826.64 534.75 897.87 421.89 1031.22 427.13 1093.36 545.25 1022.13 658.11 888.78 652.87"/><polygon class="b" points="898.44 668.97 817.53 551.18 879.08 422.2 1021.56 411.03 1102.47 528.82 1040.92 657.8 898.44 668.97"/><polygon class="b" points="901.66 672.2 816.35 555.58 874.68 423.38 1018.34 407.8 1103.65 524.42 1045.32 656.62 901.66 672.2"/><polygon class="b" points="904.89 678.64 812.38 561.59 867.49 422.95 1015.11 401.36 1107.62 518.41 1052.51 657.05 904.89 678.64"/><polygon class="b" points="908.11 678.64 813.99 564.38 865.88 425.74 1011.89 401.36 1106.01 515.62 1054.12 654.26 908.11 678.64"/><polygon class="b" points="914.55 681.86 814.42 571.57 859.87 429.71 1005.45 398.14 1105.58 508.43 1060.13 650.29 914.55 681.86"/><polygon class="b" points="921 685.08 814.85 578.76 853.86 433.68 999 394.92 1105.15 501.24 1066.14 646.32 921 685.08"/><polygon class="b" points="930.66 688.3 816.89 588.74 846.24 440.44 989.34 391.7 1103.11 491.26 1073.77 639.56 930.66 688.3"/><polygon class="b" points="946.77 691.53 822.16 604.3 835.39 452.78 973.23 388.47 1097.84 475.7 1084.61 627.22 946.77 691.53"/><polygon class="b" points="969.32 691.53 833.43 623.83 824.12 472.31 950.68 388.47 1086.57 456.17 1095.88 607.69 969.32 691.53"/><polygon class="b" points="985.43 694.75 838.7 639.39 813.27 484.65 934.57 385.25 1081.3 440.61 1106.73 595.35 985.43 694.75"/><polygon class="b" points="995.09 694.75 843.53 647.76 808.44 493.02 924.91 385.25 1076.47 432.24 1111.56 586.98 995.09 694.75"/><polygon class="b" points="1011.2 691.53 854.38 660.1 803.17 508.58 908.8 388.47 1065.63 419.9 1116.83 571.42 1011.2 691.53"/><polygon class="b" points="1033.75 688.3 868.44 678.02 794.69 529.72 886.25 391.7 1051.56 401.98 1125.31 550.28 1033.75 688.3"/><polygon class="b" points="1065.97 675.42 895.71 699.48 789.74 564.06 854.03 404.58 1024.29 380.52 1130.26 515.94 1065.97 675.42"/><polygon class="b" points="1098.19 665.75 920.19 722.55 782 596.8 821.81 414.25 999.81 357.45 1138 483.2 1098.19 665.75"/><polygon class="b" points="1117.52 652.87 941.01 732.85 783.5 619.98 802.49 427.13 978.99 347.15 1136.5 460.02 1117.52 652.87"/><polygon class="b" points="1127.18 639.98 957.01 734.77 789.83 634.79 792.82 440.02 962.99 345.23 1130.17 445.21 1127.18 639.98"/><polygon class="b" points="1136.85 623.87 975.79 735.09 798.94 651.22 783.15 456.13 944.21 344.91 1121.06 428.78 1136.85 623.87"/><polygon class="b" points="1140.07 598.1 999.72 724.99 819.65 666.89 779.93 481.9 920.28 355.01 1100.35 413.11 1140.07 598.1"/><polygon class="b" points="1143.29 575.55 1020.86 716.51 837.57 680.96 776.71 504.45 899.14 363.49 1082.43 399.04 1143.29 575.55"/><polygon class="b" points="1143.29 556.22 1037.6 706.84 854.31 690.62 776.71 523.78 882.4 373.16 1065.69 389.38 1143.29 556.22"/><polygon class="b" points="1143.29 533.66 1057.13 695.57 873.84 701.9 776.71 546.34 862.87 384.44 1046.16 378.1 1143.29 533.66"/><polygon class="b" points="1143.29 517.56 1071.08 687.51 887.79 709.95 776.71 562.44 848.92 392.49 1032.21 370.05 1143.29 517.56"/><polygon class="b" points="1143.29 504.67 1082.24 681.07 898.95 716.4 776.71 575.33 837.76 398.93 1021.05 363.6 1143.29 504.67"/><polygon class="b" points="1140.07 491.78 1091.79 671.83 911.72 720.05 779.93 588.22 828.21 408.17 1008.28 359.95 1140.07 491.78"/><polygon class="b" points="1133.62 475.68 1102.52 658.2 928.89 722.52 786.38 604.33 817.48 421.8 991.11 357.48 1133.62 475.68"/><polygon class="b" points="1130.4 459.57 1114.86 647.36 944.46 727.79 789.6 620.43 805.14 432.64 975.54 352.21 1130.4 459.57"/><polygon class="b" points="1123.96 446.68 1122.8 635.33 958.84 728.65 796.04 633.32 797.2 444.67 961.16 351.35 1123.96 446.68"/><polygon class="b" points="1114.29 427.35 1134.7 617.3 980.41 729.95 805.71 652.65 785.3 462.7 939.59 350.05 1114.29 427.35"/><polygon class="b" points="1107.85 417.69 1139.85 606.88 992 729.2 812.15 662.31 780.15 473.12 928 350.8 1107.85 417.69"/><polygon class="b" points="1098.19 404.8 1146.18 592.07 1008 727.27 821.81 675.2 773.82 487.93 912 352.73 1098.19 404.8"/><polygon class="b" points="1085.3 391.91 1150.9 574.47 1025.6 722.56 834.7 688.09 769.1 505.53 894.4 357.44 1085.3 391.91"/><polygon class="b" points="1069.19 379.03 1154 554.08 1044.81 715.05 850.81 700.97 766 525.92 875.19 364.95 1069.19 379.03"/><polygon class="b" points="1046.64 362.92 1156.68 526.49 1070.04 703.57 873.36 717.08 763.32 553.51 849.96 376.43 1046.64 362.92"/><polygon class="b" points="1020.87 350.03 1154.95 497.73 1094.09 687.7 899.13 729.97 765.05 582.27 825.91 392.3 1020.87 350.03"/><polygon class="b" points="1004.76 343.59 1152.48 480.56 1107.72 676.97 915.24 736.41 767.52 599.45 812.28 403.03 1004.76 343.59"/><polygon class="b" points="988.65 337.14 1150 463.38 1121.35 666.24 931.35 742.86 770 616.62 798.65 413.76 988.65 337.14"/><polygon class="b" points="978.99 330.7 1150.75 451.79 1131.77 661.09 941.01 749.3 769.25 628.21 788.23 418.91 978.99 330.7"/><polygon class="b" points="966.1 327.48 1147.1 439.02 1141 651.54 953.9 752.52 772.9 640.98 779 428.46 966.1 327.48"/><polygon class="b" points="946.77 321.04 1143.01 419.06 1156.24 638.02 973.23 758.96 776.99 660.94 763.76 441.98 946.77 321.04"/><polygon class="b" points="930.66 314.59 1140.54 401.89 1169.88 627.29 989.34 765.41 779.46 678.11 750.12 452.71 930.66 314.59"/><polygon class="b" points="911.33 311.37 1133.66 383.54 1182.33 612.16 1008.67 768.63 786.34 696.46 737.67 467.83 911.33 311.37"/><polygon class="b" points="895.22 308.15 1128.4 367.98 1193.18 599.83 1024.78 771.85 791.6 712.02 726.82 480.17 895.22 308.15"/><polygon class="b" points="879.11 304.93 1123.13 352.41 1204.02 587.49 1040.89 775.07 796.87 727.59 715.98 492.51 879.11 304.93"/><polygon class="b" points="863 301.71 1117.87 336.85 1214.87 575.15 1056.99 778.29 802.13 743.15 705.13 504.85 863 301.71"/><polygon class="b" points="843.67 298.49 1111 318.5 1227.32 560.02 1076.33 781.51 809 761.5 692.68 519.98 843.67 298.49"/><polygon class="b" points="834.01 298.49 1106.16 310.13 1232.15 551.65 1085.99 781.51 813.84 769.87 687.85 528.35 834.01 298.49"/><polygon class="b" points="821.12 298.49 1099.72 298.97 1238.6 540.49 1098.88 781.51 820.28 781.03 681.4 539.51 821.12 298.49"/><polygon class="b" points="808.24 298.49 1093.28 287.81 1245.04 529.33 1111.76 781.51 826.72 792.19 674.96 550.67 808.24 298.49"/><polygon class="b" points="795.35 298.49 1086.83 276.65 1251.48 518.17 1124.65 781.51 833.17 803.35 668.52 561.83 795.35 298.49"/><polygon class="b" points="785.69 298.49 1082 268.28 1256.32 509.8 1134.31 781.51 838 811.72 663.68 570.2 785.69 298.49"/><polygon class="b" points="766.36 298.49 1072.34 251.54 1265.98 493.06 1153.64 781.51 847.66 828.46 654.02 586.94 766.36 298.49"/><polygon class="b" points="753.47 301.71 1063.1 241.99 1269.63 480.29 1166.53 778.29 856.9 838.01 650.37 599.71 753.47 301.71"/><polygon class="b" points="740.58 301.71 1056.66 230.83 1276.08 469.13 1179.42 778.29 863.34 849.17 643.92 610.87 740.58 301.71"/><polygon class="b" points="727.7 304.93 1047.43 221.28 1279.73 456.36 1192.3 775.07 872.57 858.72 640.27 623.64 727.7 304.93"/><polygon class="b" points="718.03 304.93 1042.59 212.91 1284.56 447.99 1201.97 775.07 877.41 867.09 635.44 632.01 718.03 304.93"/><polygon class="b" points="705.14 308.15 1033.36 203.36 1288.22 435.21 1214.86 771.85 886.64 876.64 631.78 644.79 705.14 308.15"/><polygon class="b" points="695.48 308.15 1028.53 194.99 1293.05 426.84 1224.52 771.85 891.47 885.01 626.95 653.16 695.48 308.15"/><polygon class="b" points="685.81 311.37 1020.91 188.23 1295.09 416.86 1234.19 768.63 899.09 891.77 624.91 663.14 685.81 311.37"/><polygon class="b" points="676.15 311.37 1016.07 179.86 1299.92 408.49 1243.85 768.63 903.93 900.14 620.08 671.51 676.15 311.37"/><polygon class="b" points="666.49 314.59 1008.45 173.1 1301.97 398.51 1253.52 765.41 911.55 906.89 618.03 681.49 666.49 314.59"/><polygon class="b" points="660.04 314.59 1005.23 167.52 1305.19 392.93 1259.96 765.41 914.77 912.48 614.81 687.07 660.04 314.59"/><polygon class="b" points="650.38 314.59 1000.4 159.15 1310.02 384.56 1269.62 765.41 919.6 920.85 609.98 695.44 650.38 314.59"/><polygon class="b" points="637.49 314.59 993.95 147.99 1316.46 373.4 1282.51 765.41 926.05 932.01 603.54 706.6 637.49 314.59"/><polygon class="b" points="621.38 317.81 983.11 135.66 1321.73 357.84 1298.62 762.19 936.89 944.35 598.27 722.16 621.38 317.81"/><polygon class="b" points="611.72 317.81 978.28 127.28 1326.56 349.47 1308.28 762.19 941.72 952.72 593.44 730.53 611.72 317.81"/><polygon class="b" points="595.61 321.04 967.43 114.95 1331.82 333.91 1324.39 758.96 952.57 965.05 588.18 746.09 595.61 321.04"/><polygon class="b" points="582.72 324.26 958.2 105.4 1335.48 321.14 1337.28 755.74 961.8 974.6 584.52 758.86 582.72 324.26"/><polygon class="b" points="563.39 324.26 948.53 88.66 1345.14 304.4 1356.61 755.74 971.47 991.34 574.86 775.6 563.39 324.26"/><polygon class="b" points="550.5 324.26 942.09 77.5 1351.59 293.24 1369.49 755.74 977.91 1002.5 568.41 786.76 550.5 324.26"/><polygon class="b" points="537.62 324.26 935.65 66.34 1358.03 282.08 1382.38 755.74 984.35 1013.66 561.97 797.92 537.62 324.26"/><polygon class="b" points="521.51 327.48 924.8 54 1363.29 266.52 1398.49 752.52 995.2 1026 556.71 813.48 521.51 327.48"/><polygon class="b" points="505.4 330.7 913.96 41.66 1368.56 250.96 1414.6 749.3 1006.04 1038.34 551.44 829.04 505.4 330.7"/><polygon class="b" points="489.29 330.7 905.9 27.71 1376.61 237.01 1430.71 749.3 1014.1 1052.29 543.39 842.99 489.29 330.7"/><polygon class="b" points="479.63 330.7 901.07 19.34 1381.44 228.64 1440.37 749.3 1018.93 1060.66 538.56 851.36 479.63 330.7"/><polygon class="b" points="469.96 333.92 893.45 12.58 1383.49 218.66 1450.04 746.08 1026.55 1067.42 536.51 861.35 469.96 333.92"/><polygon class="b" points="457.08 337.14 884.22 3.03 1387.14 205.88 1462.92 742.86 1035.78 1076.97 532.86 874.12 457.08 337.14"/><polygon class="b" points="447.41 340.37 876.59 -3.73 1389.18 195.9 1472.59 739.63 1043.41 1083.73 530.82 884.1 447.41 340.37"/><polygon class="b" points="431.3 346.81 862.96 -14.46 1391.66 178.73 1488.7 733.19 1057.04 1094.46 528.34 901.27 431.3 346.81"/><polygon class="b" points="421.64 350.03 855.34 -21.22 1393.7 168.75 1498.36 729.97 1064.66 1101.22 526.3 911.25 421.64 350.03"/><polygon class="b" points="411.97 356.47 844.92 -26.37 1392.95 157.16 1508.03 723.53 1075.08 1106.37 527.05 922.84 411.97 356.47"/><polygon class="b" points="405.53 359.7 838.91 -30.34 1393.38 149.97 1514.47 720.3 1081.09 1110.34 526.62 930.03 405.53 359.7"/><polygon class="b" points="395.87 366.14 828.5 -35.48 1392.63 138.38 1524.13 713.86 1091.5 1115.48 527.37 941.62 395.87 366.14"/><polygon class="b" points="389.42 372.58 819.7 -37.84 1390.28 129.57 1530.58 707.42 1100.3 1117.84 529.72 950.43 389.42 372.58"/><polygon class="b" points="379.76 379.03 809.29 -42.99 1389.53 117.98 1540.24 700.97 1110.71 1122.99 530.47 962.02 379.76 379.03"/><polygon class="b" points="373.31 385.47 800.49 -45.35 1387.17 109.18 1546.69 694.53 1119.52 1125.35 532.83 970.82 373.31 385.47"/><polygon class="b" points="363.65 391.91 790.07 -50.5 1386.42 97.59 1556.35 688.09 1129.93 1130.5 533.58 982.41 363.65 391.91"/><polygon class="b" points="357.21 401.58 778.48 -51.25 1381.27 87.18 1562.79 678.42 1141.52 1131.25 538.73 992.82 357.21 401.58"/><polygon class="b" points="347.54 414.46 762.49 -53.17 1374.95 72.36 1572.46 665.54 1157.51 1133.17 545.05 1007.64 347.54 414.46"/><polygon class="b" points="337.88 427.35 746.5 -55.1 1368.62 57.55 1582.12 652.65 1173.51 1135.1 551.38 1022.45 337.88 427.35"/><polygon class="b" points="331.43 437.01 734.9 -55.85 1363.47 47.14 1588.57 642.99 1185.1 1135.85 556.53 1032.86 331.43 437.01"/><polygon class="b" points="328.21 446.68 724.92 -53.8 1356.71 39.52 1591.79 633.32 1195.08 1133.81 563.29 1040.48 328.21 446.68"/><polygon class="b" points="321.77 453.12 716.12 -56.16 1354.35 30.71 1598.23 626.88 1203.88 1136.16 565.65 1049.29 321.77 453.12"/><polygon class="b" points="318.55 466.01 703.35 -52.51 1344.8 21.48 1601.45 613.99 1216.65 1132.51 575.2 1058.52 318.55 466.01"/><polygon class="b" points="315.32 478.9 690.58 -48.86 1335.25 12.25 1604.67 601.1 1229.42 1128.86 584.75 1067.75 315.32 478.9"/><polygon class="b" points="315.32 498.23 673.84 -39.19 1318.51 2.58 1604.67 581.77 1246.16 1119.19 601.49 1077.42 315.32 498.23"/><polygon class="b" points="312.1 524 649.91 -29.09 1297.81 -13.1 1607.9 556 1270.09 1109.1 622.2 1093.1 312.1 524"/><polygon class="b" points="312.1 553 624.8 -14.6 1272.69 -27.59 1607.9 527 1295.2 1094.6 647.3 1107.59 312.1 553"/><polygon class="b" points="312.1 578.77 602.48 -1.71 1250.37 -40.48 1607.9 501.23 1317.52 1081.71 669.63 1120.48 312.1 578.77"/><polygon class="b" points="312.1 610.99 574.58 14.4 1222.47 -56.59 1607.9 469.01 1345.42 1065.6 697.53 1136.59 312.1 610.99"/><polygon class="b" points="318.55 649.64 544.32 39.31 1185.77 -70.34 1601.45 430.36 1375.68 1040.69 734.23 1150.34 318.55 649.64"/><polygon class="b" points="321.77 691.53 509.66 63.04 1147.89 -88.49 1598.23 388.47 1410.34 1016.96 772.11 1168.49 321.77 691.53"/><polygon class="b" points="331.43 733.41 478.22 92.35 1106.79 -101.06 1588.57 346.59 1441.78 987.65 813.21 1181.06 331.43 733.41"/><polygon class="b" points="344.32 775.29 448.39 124.45 1064.07 -110.84 1575.68 304.71 1471.61 955.55 855.93 1190.84 344.32 775.29"/><polygon class="b" points="357.21 810.73 424.15 153.33 1026.94 -117.4 1562.79 269.27 1495.85 926.67 893.06 1197.4 357.21 810.73"/><polygon class="b" points="373.31 842.94 404.3 183.39 990.99 -119.56 1546.69 237.06 1515.7 896.61 929.01 1199.56 373.31 842.94"/><polygon class="b" points="382.98 865.5 389.6 203.03 966.62 -122.46 1537.02 214.5 1530.4 876.97 953.38 1202.46 382.98 865.5"/><polygon class="b" points="395.87 884.83 379.31 223.86 943.44 -120.97 1524.13 195.18 1540.69 856.14 976.56 1200.97 395.87 884.83"/><polygon class="b" points="418.42 913.82 365.47 257.89 907.05 -115.93 1501.58 166.18 1554.53 822.11 1012.95 1195.93 418.42 913.82"/><polygon class="b" points="444.19 942.81 353.25 294.7 869.06 -108.11 1475.81 137.19 1566.75 785.3 1050.94 1188.11 444.19 942.81"/><polygon class="b" points="466.74 965.37 344.99 325.51 838.25 -99.86 1453.26 114.63 1575.01 754.49 1081.75 1179.86 466.74 965.37"/><polygon class="b" points="486.07 984.7 337.92 351.91 811.85 -92.78 1433.93 95.3 1582.08 728.09 1108.15 1172.78 486.07 984.7"/><polygon class="b" points="495.74 994.36 334.38 365.12 798.64 -89.24 1424.26 85.64 1585.62 714.88 1121.36 1169.24 495.74 994.36"/><polygon class="b" points="505.4 1000.8 333.63 376.71 788.23 -84.09 1414.6 79.2 1586.37 703.29 1131.77 1164.1 505.4 1000.8"/><polygon class="b" points="511.85 1000.8 336.86 382.29 785.01 -78.52 1408.15 79.2 1583.14 697.71 1134.99 1158.52 511.85 1000.8"/><polygon class="b" points="521.51 1004.03 338.9 392.27 777.39 -71.76 1398.49 75.97 1581.1 687.73 1142.61 1151.76 521.51 1004.03"/><polygon class="b" points="534.4 1004.03 345.34 403.43 770.94 -60.6 1385.6 75.97 1574.66 676.57 1149.06 1140.6 534.4 1004.03"/><polygon class="b" points="553.73 1004.03 355 420.17 761.28 -43.86 1366.27 75.97 1564.99 659.83 1158.72 1123.86 553.73 1004.03"/><polygon class="b" points="579.5 1007.25 365.1 444.1 745.6 -23.15 1340.5 72.75 1554.9 635.9 1174.4 1103.15 579.5 1007.25"/><polygon class="b" points="611.72 1007.25 381.21 472 729.49 4.75 1308.28 72.75 1538.79 608 1190.51 1075.25 611.72 1007.25"/><polygon class="b" points="643.93 1010.47 394.53 501.51 710.6 31.04 1276.07 69.53 1525.47 578.49 1209.4 1048.96 643.93 1010.47"/><polygon class="b" points="689.04 1016.91 411.5 543.79 682.46 66.88 1230.96 63.09 1508.5 536.21 1237.54 1013.12 689.04 1016.91"/><polygon class="b" points="737.36 1023.36 430.08 588.87 652.72 105.51 1182.64 56.64 1489.92 491.13 1267.28 974.49 737.36 1023.36"/><polygon class="b" points="795.35 1026.58 456.29 640.7 620.94 154.12 1124.65 53.42 1463.71 439.3 1299.06 925.88 795.35 1026.58"/><polygon class="b" points="863 1020.13 495.69 696.07 592.69 215.93 1056.99 59.87 1424.31 383.93 1327.31 864.07 863 1020.13"/><polygon class="b" points="930.66 1010.47 537.89 749.83 567.23 279.36 989.34 69.53 1382.11 330.18 1352.77 800.64 930.66 1010.47"/><polygon class="b" points="985.43 1004.03 570.86 794.03 545.43 330.01 934.57 75.97 1349.14 285.97 1374.57 749.99 985.43 1004.03"/><polygon class="b" points="1043.42 994.36 608.22 839.42 524.8 385.06 876.58 85.64 1311.78 240.58 1395.2 694.94 1043.42 994.36"/><polygon class="b" points="1107.85 978.25 654.39 887.17 506.54 448.92 812.15 101.75 1265.61 192.83 1413.46 631.08 1107.85 978.25"/><polygon class="b" points="1165.84 955.7 702.91 926.11 497.07 510.41 754.16 124.3 1217.09 153.89 1422.93 569.59 1165.84 955.7"/><polygon class="b" points="1214.16 933.15 746.61 956.69 492.44 563.54 705.84 146.85 1173.39 123.31 1427.56 516.46 1214.16 933.15"/><polygon class="b" points="1268.93 904.15 799.1 989.62 490.17 625.47 651.07 175.84 1120.9 90.38 1429.83 454.53 1268.93 904.15"/><polygon class="b" points="1307.59 878.38 840.75 1010.22 493.16 671.83 612.41 201.62 1079.25 69.78 1426.84 408.17 1307.59 878.38"/><polygon class="b" points="1352.7 842.94 893.99 1031.56 501.3 728.61 567.3 237.06 1026.01 48.44 1418.7 351.39 1352.7 842.94"/><polygon class="b" points="1410.69 801.06 959.26 1060.84 508.57 799.77 509.31 278.94 960.74 19.16 1411.43 280.23 1410.69 801.06"/><polygon class="b" points="1468.67 755.96 1027.31 1088.51 518.64 872.55 451.32 324.04 892.69 -8.51 1401.36 207.45 1468.67 755.96"/><polygon class="b" points="1520.22 717.3 1086.57 1113.82 526.34 936.52 399.78 362.7 833.43 -33.82 1393.66 143.48 1520.22 717.3"/><polygon class="b" points="1555.66 681.86 1134.97 1126.79 539.32 984.93 364.34 398.14 785.02 -46.79 1380.68 95.07 1555.66 681.86"/><polygon class="b" points="1584.65 649.64 1177.37 1135.79 552.72 1026.14 335.35 430.36 742.63 -55.79 1367.28 53.85 1584.65 649.64"/><polygon class="b" points="1607.21 620.65 1213.76 1140.82 566.55 1060.17 312.79 459.35 706.24 -60.82 1353.45 19.83 1607.21 620.65"/><polygon class="b" points="1626.54 581.99 1256.9 1138.23 590.37 1096.24 293.46 498.01 663.1 -58.23 1329.63 -16.24 1626.54 581.99"/><polygon class="b" points="1645.87 549.77 1294.47 1138.86 608.6 1129.09 274.13 530.23 625.53 -58.86 1311.4 -49.09 1645.87 549.77"/><polygon class="b" points="1668.42 507.89 1342.02 1137.45 633.6 1169.56 251.58 572.11 577.99 -57.45 1286.4 -89.56 1668.42 507.89"/><polygon class="b" points="1681.3 462.79 1387.52 1126.06 666.22 1203.27 238.7 617.21 532.48 -46.06 1253.79 -123.27 1681.3 462.79"/><polygon class="b" points="1684.53 437.01 1411.45 1115.96 686.92 1218.95 235.47 642.99 508.55 -35.97 1233.08 -138.95 1684.53 437.01"/><polygon class="b" points="1690.97 401.58 1445.36 1103.83 714.39 1242.25 229.03 678.42 474.64 -23.83 1205.61 -162.25 1690.97 401.58"/><polygon class="b" points="1690.97 356.47 1484.42 1081.28 753.45 1264.8 229.03 723.53 435.58 -1.27 1166.55 -184.8 1690.97 356.47"/><polygon class="b" points="1690.97 317.81 1517.9 1061.94 786.93 1284.13 229.03 762.19 402.1 18.05 1133.07 -204.13 1690.97 317.81"/><polygon class="b" points="1684.53 285.6 1542.58 1040.26 818.06 1294.66 235.47 794.4 377.42 39.74 1101.94 -214.66 1684.53 285.6"/><polygon class="b" points="1674.86 253.38 1565.65 1015.78 850.79 1302.4 245.14 826.62 354.35 64.22 1069.21 -222.4 1674.86 253.38"/><polygon class="b" points="1668.42 224.39 1587.54 995.7 879.12 1311.31 251.58 855.61 332.46 84.3 1040.88 -231.31 1668.42 224.39"/><polygon class="b" points="1658.75 198.61 1605.03 974.44 906.27 1315.83 261.25 881.39 314.97 105.56 1013.73 -235.83 1658.75 198.61"/><polygon class="b" points="1642.64 169.62 1622.08 946 939.44 1316.38 277.36 910.38 297.92 134 980.56 -236.38 1642.64 169.62"/><polygon class="b" points="1623.31 143.84 1634.74 916.37 971.42 1312.52 296.69 936.15 285.26 163.63 948.58 -232.52 1623.31 143.84"/><polygon class="b" points="1603.98 114.85 1650.18 885.13 1006.2 1310.28 316.01 965.15 269.82 194.87 913.8 -230.28 1603.98 114.85"/><polygon class="b" points="1574.99 82.63 1663.59 843.91 1048.6 1301.28 345.01 997.37 256.42 236.09 871.4 -221.28 1574.99 82.63"/><polygon class="b" points="1549.22 53.64 1675.81 807.1 1086.59 1293.46 370.78 1026.36 244.19 272.9 833.41 -213.46 1549.22 53.64"/><polygon class="b" points="1510.56 21.42 1684.38 757.51 1133.82 1276.09 409.44 1058.58 235.62 322.49 786.18 -196.09 1510.56 21.42"/><polygon class="b" points="1471.9 -10.79 1692.95 707.92 1181.05 1258.71 448.1 1090.79 227.05 372.08 738.95 -178.71 1471.9 -10.79"/><polygon class="b" points="1439.68 -33.34 1696.37 668.74 1216.69 1242.09 480.32 1113.35 223.63 411.26 703.31 -162.09 1439.68 -33.34"/><polygon class="b" points="1413.91 -49.45 1697.43 638.37 1243.53 1227.82 506.09 1129.45 222.56 441.63 676.47 -147.82 1413.91 -49.45"/><polygon class="b" points="1384.91 -68.78 1699.68 603.59 1274.77 1212.38 535.09 1148.78 220.32 476.41 645.23 -132.38 1384.91 -68.78"/><polygon class="b" points="1365.58 -81.67 1701.17 580.41 1295.59 1202.08 554.42 1161.67 218.83 499.59 624.41 -122.08 1365.58 -81.67"/><polygon class="b" points="1343.03 -94.56 1701.06 554.44 1318.03 1188.99 576.97 1174.56 218.94 525.56 601.97 -108.99 1343.03 -94.56"/><polygon class="b" points="1317.26 -110.67 1702.12 524.06 1344.86 1174.73 602.74 1190.66 217.88 555.94 575.14 -94.73 1317.26 -110.67"/><polygon class="b" points="1288.26 -126.77 1701.57 490.9 1373.31 1157.67 631.74 1206.77 218.43 589.1 546.69 -77.67 1288.26 -126.77"/><polygon class="b" points="1249.6 -146.1 1698.98 447.75 1409.38 1133.86 670.4 1226.1 221.02 632.25 510.62 -53.85 1249.6 -146.1"/><polygon class="b" points="1214.16 -168.66 1700.8 405.79 1446.63 1114.44 705.84 1248.65 219.21 674.21 473.37 -34.44 1214.16 -168.66"/><polygon class="b" points="1175.51 -191.21 1701 361.03 1485.49 1092.24 744.5 1271.21 219 718.97 434.51 -12.24 1175.51 -191.21"/><polygon class="b" points="1133.62 -210.54 1696.8 315.1 1523.17 1065.63 786.38 1290.54 223.21 764.9 396.83 14.37 1133.62 -210.54"/><polygon class="b" points="1082.08 -233.09 1690.55 259.18 1568.47 1032.27 837.92 1313.09 229.45 820.82 351.52 47.73 1082.08 -233.09"/><polygon class="b" points="1033.75 -255.64 1685.92 206.05 1612.17 1001.69 886.25 1335.64 234.08 873.95 307.83 78.31 1033.75 -255.64"/><polygon class="b" points="978.99 -274.97 1675.28 148.96 1656.29 963.93 941.01 1354.97 244.72 931.04 263.71 116.07 978.99 -274.97"/><polygon class="b" points="917.77 -297.52 1664.2 84.67 1706.43 922.19 1002.23 1377.52 255.8 995.33 213.57 157.81 917.77 -297.52"/><polygon class="b" points="879.11 -307.19 1653.24 46.36 1734.13 893.54 1040.89 1387.19 266.76 1033.64 185.87 186.46 879.11 -307.19"/><polygon class="b" points="846.9 -320.07 1648.29 12.01 1761.4 872.09 1073.1 1400.07 271.71 1067.99 158.6 207.91 846.9 -320.07"/><polygon class="b" points="821.12 -326.51 1640.99 -13.53 1779.86 852.99 1098.88 1406.52 279.01 1093.53 140.14 227.01 821.12 -326.51"/><polygon class="b" points="798.57 -336.18 1638.08 -37.89 1799.51 838.29 1121.43 1416.18 281.92 1117.89 120.49 241.71 798.57 -336.18"/><polygon class="b" points="769.58 -342.62 1629.16 -66.22 1819.59 816.4 1150.42 1422.62 290.84 1146.22 100.41 263.6 769.58 -342.62"/><polygon class="b" points="743.8 -349.07 1621.86 -91.77 1838.05 797.3 1176.2 1429.07 298.14 1171.77 81.95 282.7 743.8 -349.07"/><polygon class="b" points="724.47 -355.51 1617.77 -111.73 1853.3 783.78 1195.53 1435.51 302.23 1191.73 66.7 296.22 724.47 -355.51"/><polygon class="b" points="695.48 -361.95 1608.85 -140.06 1873.38 761.89 1224.52 1441.95 311.15 1220.06 46.63 318.11 695.48 -361.95"/><polygon class="b" points="672.93 -368.4 1603.16 -162.81 1890.23 745.59 1247.07 1448.4 316.84 1242.81 29.77 334.41 672.93 -368.4"/><polygon class="b" points="650.38 -371.62 1594.67 -183.95 1904.3 727.67 1269.62 1451.62 325.33 1263.95 15.7 352.33 650.38 -371.62"/><polygon class="b" points="624.6 -378.06 1587.37 -209.49 1922.76 708.57 1295.4 1458.06 332.63 1289.49 -2.76 371.43 624.6 -378.06"/><polygon class="b" points="605.27 -378.06 1577.7 -226.23 1932.43 691.83 1314.73 1458.06 342.3 1306.23 -12.43 388.17 605.27 -378.06"/><polygon class="b" points="589.16 -381.28 1572.44 -241.79 1943.27 679.49 1330.84 1461.28 347.56 1321.79 -23.27 400.51 589.16 -381.28"/><polygon class="b" points="569.84 -384.5 1565.56 -260.14 1955.73 664.36 1350.16 1464.51 354.44 1340.14 -35.73 415.64 569.84 -384.5"/><polygon class="b" points="547.28 -384.5 1554.29 -279.68 1967 644.83 1372.72 1464.51 365.71 1359.68 -47 435.17 547.28 -384.5"/><polygon class="b" points="524.73 -387.73 1545.8 -300.82 1981.07 626.91 1395.27 1467.73 374.2 1380.82 -61.07 453.09 524.73 -387.73"/><polygon class="b" points="495.74 -390.95 1534.09 -327.54 1998.36 603.41 1424.26 1470.95 385.91 1407.54 -78.36 476.59 495.74 -390.95"/><polygon class="b" points="460.3 -394.17 1519.16 -359.84 2018.87 574.33 1459.7 1474.17 400.83 1439.84 -98.87 505.67 460.3 -394.17"/><polygon class="b" points="421.64 -400.61 1505.41 -396.54 2043.78 544.07 1498.36 1480.61 414.58 1476.54 -123.78 535.93 421.64 -400.61"/><polygon class="b" points="379.76 -403.83 1487.26 -434.42 2067.51 509.41 1540.24 1483.84 432.74 1514.42 -147.51 570.59 379.76 -403.83"/><polygon class="b" points="344.32 -403.83 1469.55 -465.11 2085.22 478.72 1575.68 1483.84 450.45 1545.11 -165.22 601.28 344.32 -403.83"/><polygon class="b" points="312.1 -403.83 1453.44 -493.01 2101.33 450.82 1607.9 1483.84 466.56 1573.01 -181.33 629.18 312.1 -403.83"/><polygon class="b" points="283.11 -403.83 1438.94 -518.12 2115.83 425.71 1636.89 1483.84 481.06 1598.12 -195.83 654.29 283.11 -403.83"/><polygon class="b" points="257.33 -403.83 1426.05 -540.44 2128.72 403.39 1662.66 1483.84 493.95 1620.44 -208.72 676.61 257.33 -403.83"/><polygon class="b" points="231.56 -403.83 1413.17 -562.76 2141.6 381.07 1688.44 1483.84 506.83 1642.76 -221.6 698.93 231.56 -403.83"/><polygon class="b" points="212.23 -403.83 1403.5 -579.5 2151.27 364.33 1707.77 1483.84 516.5 1659.5 -231.27 715.67 212.23 -403.83"/><polygon class="b" points="186.46 -403.83 1390.62 -601.82 2164.16 342.01 1733.54 1483.84 529.38 1681.82 -244.16 737.99 186.46 -403.83"/><polygon class="b" points="151.02 -400.61 1370.11 -630.9 2179.09 309.71 1768.98 1480.61 549.89 1710.9 -259.08 770.29 151.02 -400.61"/><polygon class="b" points="122.03 -397.39 1352.82 -654.4 2190.79 282.99 1797.97 1477.39 567.18 1734.4 -270.79 797.01 122.03 -397.39"/><polygon class="b" points="86.59 -390.95 1329.52 -681.87 2202.93 249.08 1833.41 1470.95 590.48 1761.87 -282.93 830.92 86.59 -390.95"/><polygon class="b" points="64.04 -387.73 1315.45 -699.79 2211.42 227.94 1855.96 1467.73 604.55 1779.79 -291.42 852.06 64.04 -387.73"/><polygon class="b" points="35.04 -384.5 1298.17 -723.29 2223.12 201.22 1884.96 1464.51 621.83 1803.29 -303.12 878.78 35.04 -384.5"/><polygon class="b" points="12.49 -381.28 1284.1 -741.21 2231.61 180.07 1907.51 1461.28 635.9 1821.21 -311.61 899.93 12.49 -381.28"/><polygon class="b" points="-6.84 -374.84 1268.86 -754.73 2235.7 160.11 1926.84 1454.84 651.14 1834.73 -315.69 919.89 -6.84 -374.84"/><polygon class="b" points="-26.17 -368.4 1253.61 -768.25 2239.78 140.15 1946.17 1448.4 666.39 1848.25 -319.78 939.85 -26.17 -368.4"/><polygon class="b" points="-51.94 -358.73 1232.35 -785.74 2244.3 113 1971.94 1438.73 687.65 1865.73 -324.3 967 -51.94 -358.73"/><polygon class="b" points="-71.27 -349.07 1214.32 -797.64 2245.59 91.42 1991.27 1429.07 705.68 1877.64 -325.59 988.58 -71.27 -349.07"/><polygon class="b" points="-100.27 -336.18 1188.66 -816.31 2248.93 59.87 2020.27 1416.18 731.34 1896.31 -328.93 1020.13 -100.27 -336.18"/><polygon class="b" points="-122.82 -323.29 1166.22 -829.4 2249.04 33.9 2042.82 1403.29 753.77 1909.4 -329.04 1046.1 -122.82 -323.29"/><polygon class="b" points="-138.93 -313.63 1149.8 -838.51 2248.73 15.12 2058.93 1393.63 770.2 1918.51 -328.73 1064.88 -138.93 -313.63"/><polygon class="b" points="-158.26 -303.96 1131.77 -850.42 2250.02 -6.46 2078.26 1383.96 788.24 1930.42 -330.02 1086.46 -158.26 -303.96"/><polygon class="b" points="-177.59 -287.86 1108.15 -859.11 2245.74 -31.25 2097.59 1367.86 811.85 1939.11 -325.74 1111.25 -177.59 -287.86"/><polygon class="b" points="-193.7 -271.75 1086.15 -865 2239.84 -53.26 2113.7 1351.75 833.85 1945 -319.84 1133.26 -193.7 -271.75"/><polygon class="b" points="-219.47 -249.2 1053.73 -876.05 2233.2 -86.85 2139.47 1329.2 866.27 1956.05 -313.2 1166.85 -219.47 -249.2"/><polygon class="b" points="-242.02 -226.64 1022.92 -884.3 2224.94 -117.66 2162.02 1306.64 897.08 1964.3 -304.94 1197.66 -242.02 -226.64"/><polygon class="b" points="-261.35 -204.09 993.73 -889.77 2215.08 -145.67 2181.35 1284.09 926.27 1969.77 -295.08 1225.67 -261.35 -204.09"/><polygon class="b" points="-280.68 -175.1 958.95 -892.01 2199.63 -176.91 2200.68 1255.1 961.05 1972.01 -279.63 1256.91 -280.68 -175.1"/><polygon class="b" points="-296.79 -136.44 917.42 -886.63 2174.21 -210.19 2216.79 1216.44 1002.58 1966.63 -254.21 1290.19 -296.79 -136.44"/><polygon class="b" points="-306.45 -104.22 884.69 -878.89 2151.14 -234.67 2226.45 1184.22 1035.31 1958.89 -231.14 1314.67 -306.45 -104.22"/><polygon class="b" points="-319.34 -62.34 841.97 -869.11 2121.31 -266.77 2239.34 1142.34 1078.03 1949.11 -201.31 1346.77 -319.34 -62.34"/><polygon class="b" points="-322.56 -23.68 806.88 -852.57 2089.44 -288.89 2242.56 1103.68 1113.12 1932.57 -169.44 1368.89 -322.56 -23.68"/><polygon class="b" points="-325.78 -1.13 785.74 -844.09 2071.52 -302.96 2245.78 1081.13 1134.26 1924.09 -151.52 1382.96 -325.78 -1.13"/><polygon class="b" points="-329 27.87 759.02 -832.38 2048.02 -320.24 2249.01 1052.13 1160.98 1912.38 -128.02 1400.24 -329 27.87"/><polygon class="b" points="-329 60.08 731.12 -816.27 2020.12 -336.35 2249.01 1019.92 1188.88 1896.27 -100.12 1416.35 -329 60.08"/><polygon class="b" points="-319.34 105.19 696.89 -785.35 1976.23 -350.53 2239.34 974.81 1223.11 1865.35 -56.23 1430.53 -319.34 105.19"/><polygon class="b" points="-309.68 159.95 654.29 -749.59 1923.97 -369.55 2229.68 920.05 1265.71 1829.59 -3.97 1449.55 -309.68 159.95"/><polygon class="b" points="-293.57 214.72 614.92 -708.26 1868.48 -382.98 2213.57 865.28 1305.08 1788.26 51.52 1462.98 -293.57 214.72"/><polygon class="b" points="-277.46 253.38 589.49 -674.98 1826.95 -388.36 2197.46 826.62 1330.51 1754.98 93.05 1468.36 -277.46 253.38"/><polygon class="b" points="-261.35 288.82 566.85 -643.31 1788.2 -392.13 2181.35 791.18 1353.15 1723.31 131.8 1472.13 -261.35 288.82"/><polygon class="b" points="-245.24 324.26 544.22 -611.64 1749.46 -395.9 2165.24 755.74 1375.78 1691.64 170.54 1475.9 -245.24 324.26"/><polygon class="b" points="-229.13 350.03 529.95 -584.8 1719.09 -394.84 2149.13 729.97 1390.05 1664.81 200.91 1474.84 -229.13 350.03"/><polygon class="b" points="-203.36 391.91 506.57 -541.54 1669.93 -393.46 2123.36 688.09 1413.43 1621.54 250.07 1473.46 -203.36 391.91"/><polygon class="b" points="-174.37 437.01 482 -493.88 1616.37 -390.9 2094.37 642.99 1438 1573.88 303.63 1470.9 -174.37 437.01"/><polygon class="b" points="-151.81 475.68 459.8 -455.02 1571.61 -390.7 2071.81 604.33 1460.2 1535.02 348.39 1470.7 -151.81 475.68"/><polygon class="b" points="-132.49 504.67 444.35 -423.78 1536.84 -388.45 2052.49 575.33 1475.65 1503.78 383.16 1468.45 -132.49 504.67"/><polygon class="b" points="-113.16 536.89 426.12 -390.94 1499.27 -387.82 2033.15 543.11 1493.88 1470.94 420.73 1467.82 -113.16 536.89"/><polygon class="b" points="-90.6 565.88 412.28 -356.91 1462.89 -382.79 2010.6 514.12 1507.72 1436.91 457.11 1462.79 -90.6 565.88"/><polygon class="b" points="-61.61 607.76 390.51 -310.86 1412.12 -378.62 1981.61 472.24 1529.49 1390.86 507.88 1458.62 -61.61 607.76"/><polygon class="b" points="-29.39 652.87 367.56 -260.4 1356.95 -373.27 1949.39 427.13 1552.44 1340.4 563.05 1453.27 -29.39 652.87"/><polygon class="b" points="-0.4 691.53 348.58 -215.97 1308.97 -367.49 1920.4 388.47 1571.42 1295.96 611.03 1447.49 -0.4 691.53"/><polygon class="b" points="31.82 726.96 333.99 -170.35 1262.17 -357.31 1888.18 353.04 1586.01 1250.35 657.83 1437.31 31.82 726.96"/><polygon class="b" points="60.81 759.18 320.59 -129.13 1219.78 -348.31 1859.19 320.82 1599.41 1209.13 700.22 1428.31 60.81 759.18"/><polygon class="b" points="80.14 778.51 313.52 -102.72 1193.37 -341.23 1839.86 301.49 1606.48 1182.72 726.63 1421.23 80.14 778.51"/><polygon class="b" points="93.03 791.4 308.8 -85.12 1175.77 -336.52 1826.97 288.6 1611.2 1165.12 744.23 1416.52 93.03 791.4"/><polygon class="b" points="99.47 794.62 309.23 -77.93 1169.76 -332.55 1820.53 285.38 1610.77 1157.93 750.24 1412.55 99.47 794.62"/><polygon class="b" points="99.47 794.62 309.23 -77.93 1169.76 -332.55 1820.53 285.38 1610.77 1157.93 750.24 1412.55 99.47 794.62"/></g></svg>